<mxfile host="app.diagrams.net" modified="2021-07-20T03:56:00.222Z" agent="5.0 (X11)" etag="GTocaWa3G-iXJMe9_jpU" version="14.9.0" type="github">
  <diagram name="Page-1" id="c7488fd3-1785-93aa-aadb-54a6760d102a">
    <mxGraphModel dx="1628" dy="865" grid="1" gridSize="10" guides="1" tooltips="1" connect="1" arrows="1" fold="1" page="1" pageScale="1" pageWidth="1100" pageHeight="850" background="none" math="0" shadow="0">
      <root>
        <mxCell id="0" />
        <mxCell id="1" parent="0" />
        <mxCell id="2b4e8129b02d487f-1" value="&lt;div&gt;Luồng nạp hàng của Smart Vending Machine&lt;/div&gt;" style="swimlane;html=1;childLayout=stackLayout;horizontal=1;startSize=20;horizontalStack=0;rounded=0;shadow=0;labelBackgroundColor=none;strokeWidth=1;fontFamily=Verdana;fontSize=8;align=center;" parent="1" vertex="1">
          <mxGeometry y="70" width="1100" height="470" as="geometry" />
        </mxCell>
        <mxCell id="2b4e8129b02d487f-24" style="edgeStyle=orthogonalEdgeStyle;rounded=0;html=1;labelBackgroundColor=none;startArrow=none;startFill=0;startSize=5;endArrow=classicThin;endFill=1;endSize=5;jettySize=auto;orthogonalLoop=1;strokeWidth=1;fontFamily=Verdana;fontSize=8" parent="2b4e8129b02d487f-1" source="2b4e8129b02d487f-6" target="2b4e8129b02d487f-12" edge="1">
          <mxGeometry relative="1" as="geometry" />
        </mxCell>
        <mxCell id="3QMUXHnOB9Qu9mnNL3ra-1" value="" style="edgeStyle=orthogonalEdgeStyle;rounded=0;orthogonalLoop=1;jettySize=auto;html=1;" edge="1" parent="2b4e8129b02d487f-1" source="2b4e8129b02d487f-6" target="2b4e8129b02d487f-12">
          <mxGeometry relative="1" as="geometry" />
        </mxCell>
        <mxCell id="3QMUXHnOB9Qu9mnNL3ra-7" style="edgeStyle=orthogonalEdgeStyle;rounded=0;orthogonalLoop=1;jettySize=auto;html=1;exitX=0.5;exitY=1;exitDx=0;exitDy=0;entryX=0.5;entryY=0;entryDx=0;entryDy=0;" edge="1" parent="2b4e8129b02d487f-1" source="3QMUXHnOB9Qu9mnNL3ra-4" target="2b4e8129b02d487f-14">
          <mxGeometry relative="1" as="geometry" />
        </mxCell>
        <mxCell id="2b4e8129b02d487f-2" value="Người quản trị" style="swimlane;html=1;startSize=20;horizontal=0;" parent="2b4e8129b02d487f-1" vertex="1">
          <mxGeometry y="20" width="1100" height="150" as="geometry" />
        </mxCell>
        <mxCell id="2b4e8129b02d487f-6" value="&lt;div&gt;Admin tạo yêu cầu nạp hàng của một máy bán hàng  trên website quản trị &lt;br&gt;&lt;/div&gt;" style="rounded=1;whiteSpace=wrap;html=1;shadow=0;labelBackgroundColor=none;strokeWidth=1;fontFamily=Verdana;fontSize=8;align=center;" parent="2b4e8129b02d487f-2" vertex="1">
          <mxGeometry x="80" y="50" width="80" height="47" as="geometry" />
        </mxCell>
        <mxCell id="3QMUXHnOB9Qu9mnNL3ra-10" style="edgeStyle=orthogonalEdgeStyle;rounded=0;orthogonalLoop=1;jettySize=auto;html=1;exitX=1;exitY=0.5;exitDx=0;exitDy=0;exitPerimeter=0;entryX=0;entryY=0.5;entryDx=0;entryDy=0;" edge="1" parent="2b4e8129b02d487f-2" source="3QMUXHnOB9Qu9mnNL3ra-9" target="2b4e8129b02d487f-6">
          <mxGeometry relative="1" as="geometry" />
        </mxCell>
        <mxCell id="3QMUXHnOB9Qu9mnNL3ra-9" value="" style="strokeWidth=2;html=1;shape=mxgraph.flowchart.start_2;whiteSpace=wrap;" vertex="1" parent="2b4e8129b02d487f-2">
          <mxGeometry x="30" y="63.5" width="20" height="20" as="geometry" />
        </mxCell>
        <mxCell id="3QMUXHnOB9Qu9mnNL3ra-61" style="edgeStyle=orthogonalEdgeStyle;rounded=0;orthogonalLoop=1;jettySize=auto;html=1;exitX=0.5;exitY=0;exitDx=0;exitDy=0;entryX=0.5;entryY=1;entryDx=0;entryDy=0;entryPerimeter=0;" edge="1" parent="2b4e8129b02d487f-2" source="3QMUXHnOB9Qu9mnNL3ra-57" target="3QMUXHnOB9Qu9mnNL3ra-59">
          <mxGeometry relative="1" as="geometry" />
        </mxCell>
        <mxCell id="3QMUXHnOB9Qu9mnNL3ra-57" value="&lt;font style=&quot;font-size: 8px&quot;&gt;Gửi thông báo về phía người quản trị yêu cầu nạp hàng đã được xử lý&lt;br&gt;&lt;/font&gt;" style="rounded=1;whiteSpace=wrap;html=1;strokeWidth=1;" vertex="1" parent="2b4e8129b02d487f-2">
          <mxGeometry x="990" y="83.5" width="80" height="46.5" as="geometry" />
        </mxCell>
        <mxCell id="3QMUXHnOB9Qu9mnNL3ra-59" value="&lt;font style=&quot;font-size: 8px&quot;&gt;Hoàn tất quá trình&lt;br&gt;&lt;/font&gt;" style="strokeWidth=2;html=1;shape=mxgraph.flowchart.terminator;whiteSpace=wrap;" vertex="1" parent="2b4e8129b02d487f-2">
          <mxGeometry x="995" y="10" width="70" height="40" as="geometry" />
        </mxCell>
        <mxCell id="2b4e8129b02d487f-3" value="Người nạp hàng" style="swimlane;html=1;startSize=20;horizontal=0;" parent="2b4e8129b02d487f-1" vertex="1">
          <mxGeometry y="170" width="1100" height="150" as="geometry" />
        </mxCell>
        <mxCell id="3QMUXHnOB9Qu9mnNL3ra-5" style="edgeStyle=orthogonalEdgeStyle;rounded=0;orthogonalLoop=1;jettySize=auto;html=1;exitX=1;exitY=0.5;exitDx=0;exitDy=0;entryX=0;entryY=0.5;entryDx=0;entryDy=0;" edge="1" parent="2b4e8129b02d487f-3" source="2b4e8129b02d487f-12" target="3QMUXHnOB9Qu9mnNL3ra-4">
          <mxGeometry relative="1" as="geometry" />
        </mxCell>
        <mxCell id="2b4e8129b02d487f-12" value="Người nạp hàng của máy bán hàng đó nhận thông báo và thực hiện nhiệm vụ " style="rounded=1;whiteSpace=wrap;html=1;shadow=0;labelBackgroundColor=none;strokeWidth=1;fontFamily=Verdana;fontSize=8;align=center;" parent="2b4e8129b02d487f-3" vertex="1">
          <mxGeometry x="80" y="47" width="80" height="50" as="geometry" />
        </mxCell>
        <mxCell id="3QMUXHnOB9Qu9mnNL3ra-4" value="&lt;font style=&quot;font-size: 8px&quot;&gt;Người nạp hàng tiếp cận máy bán hàng và mở khoan chứa đồ&lt;/font&gt;" style="rounded=1;whiteSpace=wrap;html=1;" vertex="1" parent="2b4e8129b02d487f-3">
          <mxGeometry x="200" y="47" width="90" height="50" as="geometry" />
        </mxCell>
        <mxCell id="3QMUXHnOB9Qu9mnNL3ra-14" value="&lt;font style=&quot;font-size: 8px&quot;&gt;Người nạp hàng xác nhận mã code&lt;/font&gt;" style="rounded=1;whiteSpace=wrap;html=1;strokeWidth=1;" vertex="1" parent="2b4e8129b02d487f-3">
          <mxGeometry x="330" y="52" width="60" height="38" as="geometry" />
        </mxCell>
        <mxCell id="3QMUXHnOB9Qu9mnNL3ra-27" style="edgeStyle=orthogonalEdgeStyle;rounded=0;orthogonalLoop=1;jettySize=auto;html=1;exitX=1;exitY=0.5;exitDx=0;exitDy=0;entryX=0;entryY=0.5;entryDx=0;entryDy=0;" edge="1" parent="2b4e8129b02d487f-3" source="3QMUXHnOB9Qu9mnNL3ra-21" target="3QMUXHnOB9Qu9mnNL3ra-26">
          <mxGeometry relative="1" as="geometry" />
        </mxCell>
        <mxCell id="3QMUXHnOB9Qu9mnNL3ra-21" value="&lt;font style=&quot;font-size: 8px&quot;&gt;Ứng dụng trên điện thoại của người nạp hàng hiển thị những sản phẩm cần thay thế&lt;/font&gt;" style="rounded=1;whiteSpace=wrap;html=1;strokeWidth=1;" vertex="1" parent="2b4e8129b02d487f-3">
          <mxGeometry x="410" y="50" width="100" height="40" as="geometry" />
        </mxCell>
        <mxCell id="3QMUXHnOB9Qu9mnNL3ra-31" style="edgeStyle=orthogonalEdgeStyle;rounded=0;orthogonalLoop=1;jettySize=auto;html=1;exitX=1;exitY=0.5;exitDx=0;exitDy=0;entryX=0;entryY=0.5;entryDx=0;entryDy=0;entryPerimeter=0;" edge="1" parent="2b4e8129b02d487f-3" source="3QMUXHnOB9Qu9mnNL3ra-26" target="3QMUXHnOB9Qu9mnNL3ra-30">
          <mxGeometry relative="1" as="geometry">
            <mxPoint x="680" y="70" as="targetPoint" />
            <Array as="points" />
          </mxGeometry>
        </mxCell>
        <mxCell id="3QMUXHnOB9Qu9mnNL3ra-26" value="&lt;font style=&quot;font-size: 8px&quot;&gt;Người nạp hàng tiến hành thay thế, nạp đầy những ô hàng theo hiển thị trên ứng dụng điện thoại&lt;br&gt;&lt;/font&gt;" style="rounded=1;whiteSpace=wrap;html=1;strokeWidth=1;" vertex="1" parent="2b4e8129b02d487f-3">
          <mxGeometry x="540" y="43.5" width="110" height="53" as="geometry" />
        </mxCell>
        <mxCell id="3QMUXHnOB9Qu9mnNL3ra-38" style="edgeStyle=orthogonalEdgeStyle;rounded=0;orthogonalLoop=1;jettySize=auto;html=1;exitX=1;exitY=0.5;exitDx=0;exitDy=0;entryX=0;entryY=0.5;entryDx=0;entryDy=0;" edge="1" parent="2b4e8129b02d487f-3" source="3QMUXHnOB9Qu9mnNL3ra-28" target="3QMUXHnOB9Qu9mnNL3ra-37">
          <mxGeometry relative="1" as="geometry" />
        </mxCell>
        <mxCell id="3QMUXHnOB9Qu9mnNL3ra-28" value="&lt;font style=&quot;font-size: 8px&quot;&gt;Người nạp hàng không hoàn tất quá trình nạp hàng vì lý do không đủ hàng hóa&lt;br&gt;&lt;/font&gt;" style="rounded=1;whiteSpace=wrap;html=1;strokeWidth=1;" vertex="1" parent="2b4e8129b02d487f-3">
          <mxGeometry x="720" y="12" width="90" height="48.5" as="geometry" />
        </mxCell>
        <mxCell id="3QMUXHnOB9Qu9mnNL3ra-47" style="edgeStyle=orthogonalEdgeStyle;rounded=0;orthogonalLoop=1;jettySize=auto;html=1;exitX=0.5;exitY=0;exitDx=0;exitDy=0;exitPerimeter=0;entryX=0;entryY=0.5;entryDx=0;entryDy=0;" edge="1" parent="2b4e8129b02d487f-3" source="3QMUXHnOB9Qu9mnNL3ra-30" target="3QMUXHnOB9Qu9mnNL3ra-28">
          <mxGeometry relative="1" as="geometry">
            <Array as="points">
              <mxPoint x="690" y="36" />
            </Array>
          </mxGeometry>
        </mxCell>
        <mxCell id="3QMUXHnOB9Qu9mnNL3ra-48" style="edgeStyle=orthogonalEdgeStyle;rounded=0;orthogonalLoop=1;jettySize=auto;html=1;exitX=0.5;exitY=1;exitDx=0;exitDy=0;exitPerimeter=0;entryX=0.014;entryY=0.467;entryDx=0;entryDy=0;entryPerimeter=0;" edge="1" parent="2b4e8129b02d487f-3" source="3QMUXHnOB9Qu9mnNL3ra-30" target="3QMUXHnOB9Qu9mnNL3ra-33">
          <mxGeometry relative="1" as="geometry">
            <Array as="points">
              <mxPoint x="690" y="114" />
              <mxPoint x="721" y="114" />
            </Array>
          </mxGeometry>
        </mxCell>
        <mxCell id="3QMUXHnOB9Qu9mnNL3ra-30" value="" style="strokeWidth=1;html=1;shape=mxgraph.flowchart.decision;whiteSpace=wrap;" vertex="1" parent="2b4e8129b02d487f-3">
          <mxGeometry x="680" y="60.5" width="20" height="19" as="geometry" />
        </mxCell>
        <mxCell id="3QMUXHnOB9Qu9mnNL3ra-36" style="edgeStyle=orthogonalEdgeStyle;rounded=0;orthogonalLoop=1;jettySize=auto;html=1;exitX=1;exitY=0.5;exitDx=0;exitDy=0;entryX=0;entryY=0.5;entryDx=0;entryDy=0;" edge="1" parent="2b4e8129b02d487f-3" source="3QMUXHnOB9Qu9mnNL3ra-33" target="3QMUXHnOB9Qu9mnNL3ra-35">
          <mxGeometry relative="1" as="geometry" />
        </mxCell>
        <mxCell id="3QMUXHnOB9Qu9mnNL3ra-33" value="&lt;font style=&quot;font-size: 8px&quot;&gt;Người nạp hàng hoàn tất quá trình thay hàng mà không gặp vấn đề trục trặc&lt;br&gt;&lt;/font&gt;" style="rounded=1;whiteSpace=wrap;html=1;strokeWidth=1;" vertex="1" parent="2b4e8129b02d487f-3">
          <mxGeometry x="720" y="91" width="90" height="50" as="geometry" />
        </mxCell>
        <mxCell id="3QMUXHnOB9Qu9mnNL3ra-35" value="&lt;font style=&quot;font-size: 8px&quot;&gt;Người nạp hàng tiến hành bấm nút xác nhận trên ứng dụng điện thoại&lt;br&gt;&lt;/font&gt;" style="rounded=1;whiteSpace=wrap;html=1;strokeWidth=1;" vertex="1" parent="2b4e8129b02d487f-3">
          <mxGeometry x="850" y="90" width="80" height="51" as="geometry" />
        </mxCell>
        <mxCell id="3QMUXHnOB9Qu9mnNL3ra-39" style="edgeStyle=orthogonalEdgeStyle;rounded=0;orthogonalLoop=1;jettySize=auto;html=1;exitX=0.5;exitY=1;exitDx=0;exitDy=0;entryX=0.5;entryY=0;entryDx=0;entryDy=0;" edge="1" parent="2b4e8129b02d487f-3" source="3QMUXHnOB9Qu9mnNL3ra-37" target="3QMUXHnOB9Qu9mnNL3ra-35">
          <mxGeometry relative="1" as="geometry" />
        </mxCell>
        <mxCell id="3QMUXHnOB9Qu9mnNL3ra-37" value="&lt;font style=&quot;font-size: 8px&quot;&gt;Người nạp hàng tiến hành chỉnh lại số lượng hàng trên ứng dụng điện thoại cho đúng với số lượng mình đã nạp vào&lt;br&gt;&lt;/font&gt;" style="rounded=1;whiteSpace=wrap;html=1;strokeWidth=1;" vertex="1" parent="2b4e8129b02d487f-3">
          <mxGeometry x="840" y="6.62" width="100" height="59.25" as="geometry" />
        </mxCell>
        <mxCell id="3QMUXHnOB9Qu9mnNL3ra-15" style="edgeStyle=orthogonalEdgeStyle;rounded=0;orthogonalLoop=1;jettySize=auto;html=1;exitX=0.5;exitY=1;exitDx=0;exitDy=0;" edge="1" parent="2b4e8129b02d487f-1" source="3QMUXHnOB9Qu9mnNL3ra-14" target="3QMUXHnOB9Qu9mnNL3ra-12">
          <mxGeometry relative="1" as="geometry" />
        </mxCell>
        <mxCell id="3QMUXHnOB9Qu9mnNL3ra-23" style="edgeStyle=orthogonalEdgeStyle;rounded=0;orthogonalLoop=1;jettySize=auto;html=1;exitX=0.5;exitY=0;exitDx=0;exitDy=0;exitPerimeter=0;entryX=0.5;entryY=1;entryDx=0;entryDy=0;" edge="1" parent="2b4e8129b02d487f-1" source="3QMUXHnOB9Qu9mnNL3ra-16" target="3QMUXHnOB9Qu9mnNL3ra-21">
          <mxGeometry relative="1" as="geometry">
            <Array as="points">
              <mxPoint x="460" y="263" />
            </Array>
          </mxGeometry>
        </mxCell>
        <mxCell id="3QMUXHnOB9Qu9mnNL3ra-43" style="edgeStyle=orthogonalEdgeStyle;rounded=0;orthogonalLoop=1;jettySize=auto;html=1;exitX=0.5;exitY=1;exitDx=0;exitDy=0;entryX=0.5;entryY=0;entryDx=0;entryDy=0;" edge="1" parent="2b4e8129b02d487f-1" source="3QMUXHnOB9Qu9mnNL3ra-35" target="3QMUXHnOB9Qu9mnNL3ra-42">
          <mxGeometry relative="1" as="geometry" />
        </mxCell>
        <mxCell id="2b4e8129b02d487f-4" value="&lt;div&gt;Máy bán hàng&lt;/div&gt;" style="swimlane;html=1;startSize=20;horizontal=0;" parent="2b4e8129b02d487f-1" vertex="1">
          <mxGeometry y="320" width="1100" height="150" as="geometry" />
        </mxCell>
        <mxCell id="3QMUXHnOB9Qu9mnNL3ra-13" style="edgeStyle=orthogonalEdgeStyle;rounded=0;orthogonalLoop=1;jettySize=auto;html=1;exitX=1;exitY=0.5;exitDx=0;exitDy=0;entryX=0;entryY=0.5;entryDx=0;entryDy=0;entryPerimeter=0;" edge="1" parent="2b4e8129b02d487f-4" source="2b4e8129b02d487f-14" target="3QMUXHnOB9Qu9mnNL3ra-12">
          <mxGeometry relative="1" as="geometry" />
        </mxCell>
        <mxCell id="2b4e8129b02d487f-14" value="Màn hình máy bàn hiển trị sang màn hình nạp hàng hàng cùng với &lt;b&gt;mã code&lt;/b&gt;" style="rounded=1;whiteSpace=wrap;html=1;shadow=0;labelBackgroundColor=none;strokeWidth=1;fontFamily=Verdana;fontSize=8;align=center;" parent="2b4e8129b02d487f-4" vertex="1">
          <mxGeometry x="200" y="47" width="90" height="50" as="geometry" />
        </mxCell>
        <mxCell id="3QMUXHnOB9Qu9mnNL3ra-17" style="edgeStyle=orthogonalEdgeStyle;rounded=0;orthogonalLoop=1;jettySize=auto;html=1;exitX=0.93;exitY=0.5;exitDx=0;exitDy=0;exitPerimeter=0;entryX=0;entryY=0.5;entryDx=0;entryDy=0;entryPerimeter=0;" edge="1" parent="2b4e8129b02d487f-4" source="3QMUXHnOB9Qu9mnNL3ra-12" target="3QMUXHnOB9Qu9mnNL3ra-16">
          <mxGeometry relative="1" as="geometry" />
        </mxCell>
        <mxCell id="3QMUXHnOB9Qu9mnNL3ra-12" value="&lt;font style=&quot;font-size: 8px&quot;&gt;Mã Code&lt;/font&gt;" style="strokeWidth=1;html=1;shape=mxgraph.flowchart.stored_data;whiteSpace=wrap;" vertex="1" parent="2b4e8129b02d487f-4">
          <mxGeometry x="330" y="57" width="60" height="30" as="geometry" />
        </mxCell>
        <mxCell id="3QMUXHnOB9Qu9mnNL3ra-51" style="edgeStyle=orthogonalEdgeStyle;rounded=0;orthogonalLoop=1;jettySize=auto;html=1;exitX=1;exitY=0.5;exitDx=0;exitDy=0;exitPerimeter=0;entryX=0;entryY=0.5;entryDx=0;entryDy=0;entryPerimeter=0;" edge="1" parent="2b4e8129b02d487f-4" source="3QMUXHnOB9Qu9mnNL3ra-16" target="3QMUXHnOB9Qu9mnNL3ra-49">
          <mxGeometry relative="1" as="geometry" />
        </mxCell>
        <mxCell id="3QMUXHnOB9Qu9mnNL3ra-16" value="" style="strokeWidth=1;html=1;shape=mxgraph.flowchart.decision;whiteSpace=wrap;" vertex="1" parent="2b4e8129b02d487f-4">
          <mxGeometry x="450" y="62" width="20" height="20" as="geometry" />
        </mxCell>
        <mxCell id="3QMUXHnOB9Qu9mnNL3ra-18" value="&lt;font style=&quot;font-size: 5px&quot;&gt;quét mã thành công&lt;br&gt;&lt;/font&gt;" style="text;html=1;strokeColor=none;fillColor=none;align=center;verticalAlign=middle;whiteSpace=wrap;rounded=0;" vertex="1" parent="2b4e8129b02d487f-4">
          <mxGeometry x="380" y="47" width="70" height="27" as="geometry" />
        </mxCell>
        <mxCell id="3QMUXHnOB9Qu9mnNL3ra-56" style="edgeStyle=orthogonalEdgeStyle;rounded=0;orthogonalLoop=1;jettySize=auto;html=1;exitX=1;exitY=0.5;exitDx=0;exitDy=0;entryX=0;entryY=0.5;entryDx=0;entryDy=0;" edge="1" parent="2b4e8129b02d487f-4" source="3QMUXHnOB9Qu9mnNL3ra-42" target="3QMUXHnOB9Qu9mnNL3ra-53">
          <mxGeometry relative="1" as="geometry" />
        </mxCell>
        <mxCell id="3QMUXHnOB9Qu9mnNL3ra-42" value="&lt;font style=&quot;font-size: 10px&quot;&gt;Máy bán hàng nhận thông báo xác nhận quá trình nạp hàng đã được thực thi&lt;/font&gt;" style="rounded=1;whiteSpace=wrap;html=1;strokeWidth=1;" vertex="1" parent="2b4e8129b02d487f-4">
          <mxGeometry x="830" y="42" width="120" height="60" as="geometry" />
        </mxCell>
        <mxCell id="3QMUXHnOB9Qu9mnNL3ra-49" value="&lt;font style=&quot;font-size: 8px&quot;&gt;Hủy quá trình&lt;/font&gt;" style="strokeWidth=1;html=1;shape=mxgraph.flowchart.terminator;whiteSpace=wrap;" vertex="1" parent="2b4e8129b02d487f-4">
          <mxGeometry x="525" y="57" width="50" height="30" as="geometry" />
        </mxCell>
        <mxCell id="3QMUXHnOB9Qu9mnNL3ra-50" value="&lt;font style=&quot;font-size: 8px&quot;&gt;thành công&lt;br&gt;&lt;/font&gt;" style="text;html=1;strokeColor=none;fillColor=none;align=center;verticalAlign=middle;whiteSpace=wrap;rounded=0;" vertex="1" parent="2b4e8129b02d487f-4">
          <mxGeometry x="420" y="22" width="40" height="20" as="geometry" />
        </mxCell>
        <mxCell id="3QMUXHnOB9Qu9mnNL3ra-52" value="&lt;font style=&quot;font-size: 8px&quot;&gt;thất bại&lt;br&gt;&lt;/font&gt;" style="text;html=1;strokeColor=none;fillColor=none;align=center;verticalAlign=middle;whiteSpace=wrap;rounded=0;" vertex="1" parent="2b4e8129b02d487f-4">
          <mxGeometry x="480" y="52" width="40" height="20" as="geometry" />
        </mxCell>
        <mxCell id="3QMUXHnOB9Qu9mnNL3ra-53" value="&lt;font style=&quot;font-size: 8px&quot;&gt;Cập nhật số lượng hàng hóa trên phần mềm và cơ sở dữ liệu&lt;br&gt;&lt;/font&gt;" style="rounded=1;whiteSpace=wrap;html=1;strokeWidth=1;" vertex="1" parent="2b4e8129b02d487f-4">
          <mxGeometry x="990" y="42" width="80" height="60" as="geometry" />
        </mxCell>
        <mxCell id="3QMUXHnOB9Qu9mnNL3ra-58" style="edgeStyle=orthogonalEdgeStyle;rounded=0;orthogonalLoop=1;jettySize=auto;html=1;exitX=0.5;exitY=0;exitDx=0;exitDy=0;" edge="1" parent="2b4e8129b02d487f-1" source="3QMUXHnOB9Qu9mnNL3ra-53" target="3QMUXHnOB9Qu9mnNL3ra-57">
          <mxGeometry relative="1" as="geometry" />
        </mxCell>
      </root>
    </mxGraphModel>
  </diagram>
</mxfile>
